# AST/ASF file generated using VICON BodyLanguage
# -----------------------------------------------
:version 1.10
:name VICON
:units
  mass 1.0
  length 0.45
  angle deg
:documentation
   .ast/.asf automatically generated from VICON data using
   VICON BodyBuilder and BodyLanguage model FoxedUp or BRILLIANT.MOD
:root
   order TX TY TZ RX RY RZ
   axis XYZ
   position 0 0 0  
   orientation 0 0 0 
:bonedata
  begin
     id 1 
     name lhipjoint
     direction 0.547975 -0.797114 0.253638 
     length 2.36201 
     axis 0 0 0  XYZ
  end
  begin
     id 2 
     name lfemur
     direction 0.34202 -0.939693 0  
     length 7.69075  
     axis 0 0 20  XYZ
    dof rx ry rz
    limits (-160.0 20.0)
           (-70.0 70.0)
           (-60.0 70.0)
  end
  begin
     id 3 
     name ltibia
     direction 0.34202 -0.939693 0   
     length 7.91399   
     axis 0 0 20   XYZ
    dof rx
    limits (-10.0 170.0)
  end
  begin
     id 4 
     name lfoot
     direction 0.0705293 -0.193778 0.978507   
     length 2.13618   
     axis -90 7.62852e-016 20   XYZ
    dof rx rz
    limits (-45.0 90.0)
           (-70.0 20.0)
  end
  begin
     id 5 
     name ltoes
     direction 1.53592e-011 -4.21925e-011 1   
     length 1.07518   
     axis -90 7.62852e-016 20   XYZ
    dof rx
    limits (-90.0 20.0)
  end
  begin
     id 6 
     name rhipjoint
     direction -0.57 -0.782963 0.249136   
     length 2.4047  
     axis 0 0 0  XYZ 
  end
  begin
     id 7 
     name rfemur
     direction -0.34202 -0.939693 0   
     length 7.51486   
     axis 0 0 -20   XYZ
    dof rx ry rz
    limits (-160.0 20.0)
           (-70.0 70.0)
           (-70.0 60.0)
  end
  begin
     id 8 
     name rtibia
     direction -0.34202 -0.939693 0   
     length 8.08317   
     axis 0 0 -20   XYZ
    dof rx
    limits (-10.0 170.0)
 end
 begin
     id 9 
     name rfoot
     direction -0.104954 -0.281256 0.953876   
     length 2.30343  
     axis -90 -7.62852e-016 -20   XYZ
    dof rx rz
    limits (-45.0 90.0)
           (-20.0 70.0)
  end
  begin
     id 10 
     name rtoes
     direction -1.53556e-011 -4.21922e-011 1   
     length 1.14803   
     axis -90 -7.62852e-016 -20   XYZ
    dof rx
    limits (-90.0 20.0)
  end
  begin
     id 11 
     name lowerback
     direction -0.0152855 0.99353 -0.11254   
     length 2.05311   
     axis 0 0 0   XYZ
    dof rx ry rz
    limits (-20.0 45.0)
           (-30.0 30.0)
           (-30.0 30.0)
  end
  begin
     id 12 
     name upperback
     direction -0.00157509 0.999443 -0.033332   
     length 2.06353   
     axis 0 0 0   XYZ
    dof rx ry rz
    limits (-20.0 45.0)
           (-30.0 30.0)
           (-30.0 30.0)
  end
  begin
     id 13 
     name thorax
     direction 0.00577788 0.999804 0.0189484   
     length 2.08472   
     axis 0 0 0   XYZ
    dof rx ry rz
    limits (-20.0 45.0)
           (-30.0 30.0)
           (-30.0 30.0)
  end
  begin
     id 14 
     name lowerneck
     direction -1.09301e-005 0.994719 0.10264   
     length 1.76249   
     axis 0 0 0   XYZ
    dof rx ry rz
    limits (-20.0 45.0)
           (-30.0 30.0)
           (-30.0 30.0)
  end
  begin
     id 15 
     name upperneck
     direction 0.0495018 0.988526 -0.142706   
     length 1.77897   
     axis 0 0 0   XYZ
    dof rx ry rz
    limits (-20.0 45.0)
           (-30.0 30.0)
           (-30.0 30.0)
  end
  begin
     id 16
     name head
     direction 0.0142736 0.998114 -0.0597101  
     length 1.78934  
     axis 0 0 0   XYZ
    dof rx ry rz
    limits (-20.0 45.0)
           (-30.0 30.0)
           (-30.0 30.0)
  end
  begin
     id 17 
     name lclavicle
     direction 0.918111 0.396107 -0.0130883  
     length 3.37276  
     axis 0 0 0   XYZ
    dof ry rz
    limits (-20.0 10.0)
           (0.0 20.0)
  end
  begin
     id 18 
     name lhumerus
     direction 1 -4.48975e-011 -3.26108e-027   
     length 5.34298   
     axis 180 -30 -90   XYZ
    dof rx ry rz
    limits (-60.0 90.0)
           (-90.0 90.0)
           (-90.0 90.0)
  end
  begin
     id 19
     name lradius
     direction 1 -4.48964e-011 -8.84413e-028   
     length 3.67262   
     axis 180 -30 -90   XYZ
    dof rx
    limits (-10.0 170.0)
  end
  begin
     id 20
     name lwrist
     direction 1 -4.48991e-011 -1.24264e-027   
     length 1.83631   
     axis -2.17013e-015 90 90   XYZ
    dof ry
    limits (-180.0 0.0)
 end
  begin
     id 21 
     name lhand
     direction 1 -4.48855e-011 -2.48528e-027   
     length 0.599298   
     axis 1.58582e-015 90 90   XYZ
    dof rx rz
    limits (-90.0 90.0)
           (-45.0 45.0)
  end
  begin
     id 22 
     name lfingers
     direction 1 -4.48811e-011 -4.97056e-027   
     length 0.48317   
     axis 3.17164e-015 90 90   XYZ
    dof rx
    limits (0.0 90.0)
  end
  begin
     id 23
     name lthumb
     direction 0.707107 -6.34882e-011 0.707107   
     length 0.693738   
     axis -90 45 2.85299e-015   XYZ
    dof rx rz
    limits (-45.0 45.0)
           (-45.0 45.0)
  end
  begin
     id 24 
     name rclavicle
     direction -0.920511 0.384752 -0.0680135   
     length 3.43787  
     axis 0 0 0   XYZ 
    dof ry rz
    limits (-10.0 20.0)
           (-20.0 0.0)
  end
  begin
     id 25 
     name rhumerus
     direction -0.999976 -0.00330524 0.00603274  
     length 5.5498   
     axis 180 30 90   XYZ
    dof rx ry rz
    limits (-90.0 60.0)
           (-90.0 90.0)
           (-90.0 90.0)
  end
  begin
     id 26 
     name rradius
     direction -1 -4.48967e-011 8.62438e-027   
     length 3.69401   
     axis 180 30 90   XYZ
    dof rx
    limits (-10.0 170.0)
  end
  begin
     id 27 
     name rwrist
     direction -1 -4.4897e-011 9.54866e-027   
     length 1.84701   
     axis -7.69462e-015 -90 -90   XYZ
    dof ry
    limits (-180.0 0.0)
  end
  begin
     id 28
     name rhand
     direction -1 -4.48982e-011 1.90973e-026   
     length 0.638113   
     axis -1.21857e-014 -90 -90   XYZ
    dof rx rz
    limits (-90.0 90.0)
           (-45.0 45.0)
  end
  begin
     id 29
     name rfingers
     direction -1 -4.48936e-011 3.81946e-026   
     length 0.514463   
     axis -2.43714e-014 -90 -90   XYZ
    dof rx
    limits (0.0 90.0)
  end
  begin
     id 30
     name rthumb
     direction -0.707107 -6.34942e-011 0.707107   
     length 0.738669   
     axis -90 -45 -2.85299e-015   XYZ
    dof rx rz
    limits (-45.0 45.0)
           (-45.0 45.0)
  end
:hierarchy
  begin
    root lhipjoint rhipjoint lowerback
    lhipjoint lfemur
    lfemur ltibia
    ltibia lfoot
    lfoot ltoes
    rhipjoint rfemur
    rfemur rtibia
    rtibia rfoot
    rfoot rtoes
    lowerback upperback
    upperback thorax
    thorax lowerneck lclavicle rclavicle
    lowerneck upperneck
    upperneck head
    lclavicle lhumerus
    lhumerus lradius
    lradius lwrist
    lwrist lhand lthumb
    lhand lfingers
    rclavicle rhumerus
    rhumerus rradius
    rradius rwrist
    rwrist rhand rthumb
    rhand rfingers
  end

#!OML:ASF F:\twosubjects\two\Thursday\Session 1\Rory.ASF
:FULLY-SPECIFIED
:DEGREES
1
root 14.9119 18.5908 21.1274 -174.06 -10.8277 -179.137
lowerback 10.2121 1.83068 -2.24958
upperback 5.40746 1.64497 -2.17877
thorax -0.107476 0.569041 -1.15457
lowerneck -1.21821 -7.12978 -6.62138
upperneck 21.7961 -12.0298 4.44029
head 7.55743 -6.4585 1.60875
rclavicle 6.67916e-014 -8.74653e-015
rhumerus -16.6496 -11.3836 -63.0579
rradius 51.5873
rwrist 4.68687
rhand -20.4609 27.5983
rfingers 7.12502
rthumb 5.89483 -2.29972
lclavicle 6.67916e-014 -8.74653e-015
lhumerus -29.2869 -10.1241 83.4979
lradius 54.4105
lwrist -8.28621
lhand -7.82132 30.4618
lfingers 7.12502
lthumb 18.0808 59.6414
rfemur -22.0329 9.70917 19.6519
rtibia 38.0247
rfoot -17.2086 -8.72966
rtoes 2.32216
lfemur -32.9379 4.49241 -17.3653
ltibia 53.9299
lfoot -11.8346 1.59606
ltoes -5.64441
2
root 14.887 18.5769 21.0425 -173.848 -10.5394 -178.933
lowerback 10.227 1.45513 -2.52911
upperback 5.98469 1.07466 -1.81942
thorax 0.469674 0.238234 -0.566258
lowerneck -3.1883 -6.91497 -7.90844
upperneck 22.1261 -11.4057 4.59127
head 8.06592 -6.16191 1.81913
rclavicle 4.37326e-015 2.06736e-014
rhumerus -13.6155 -10.0568 -62.6852
rradius 51.8839
rwrist 3.62511
rhand -21.5024 26.1077
rfingers 7.12502
rthumb 4.88924 -3.81586
lclavicle 4.37326e-015 2.06736e-014
lhumerus -28.2478 -7.95055 83.2675
lradius 54.53
lwrist -8.46081
lhand -8.29161 30.1952
lfingers 7.12502
lthumb 17.6282 59.416
rfemur -22.0334 9.9022 19.8556
rtibia 38.0319
rfoot -17.2328 -8.80687
rtoes 1.60492
lfemur -33.7385 4.39064 -17.0295
ltibia 52.2969
lfoot -11.8181 1.34041
ltoes -1.81884
3
root 14.8587 18.5732 20.9615 -173.662 -10.126 -178.937
lowerback 10.2783 1.82814 -2.40139
upperback 6.01571 1.55572 -2.14677
thorax 0.483539 0.478141 -1.02424
lowerneck -2.49219 -7.20244 -7.44868
upperneck 21.7101 -11.9088 4.78806
head 7.82047 -6.35887 1.80342
rclavicle -3.1408e-014 -7.95139e-014
rhumerus -13.3042 -10.9711 -62.0548
rradius 52.3698
rwrist 2.75675
rhand -22.2042 26.2483
rfingers 7.12502
rthumb 4.21158 -3.68986
lclavicle -3.1408e-014 -7.95139e-014
lhumerus -28.1916 -9.03073 83.0316
lradius 54.841
lwrist -8.13037
lhand -8.86494 30.5696
lfingers 7.12502
lthumb 17.0764 59.8391
rfemur -21.8542 10.156 19.8001
rtibia 37.763
rfoot -17.0919 -8.84045
rtoes 0.819081
lfemur -34.2577 4.47666 -16.9621
ltibia 50.3184
lfoot -11.3197 1.08606
ltoes 3.3454
4
root 14.8291 18.585 20.882 -173.574 -9.7725 -178.839
lowerback 10.5182 2.33089 -1.89249
upperback 5.70315 2.25567 -2.68184
thorax 0.072395 0.856194 -1.94391
lowerneck -0.755317 -7.48977 -6.36493
upperneck 21.1218 -12.5516 4.92771
head 7.30155 -6.63543 1.71934
rclavicle 7.39479e-014 1.74931e-014
rhumerus -14.0498 -12.4584 -61.4462
rradius 52.8384
rwrist 2.27402
rhand -23.7182 26.0245
rfingers 7.12502
rthumb 2.7495 -3.93755
lclavicle 7.39479e-014 1.74931e-014
lhumerus -28.7802 -11.0862 82.7129
lradius 55.3185
lwrist -8.26246
lhand -8.79297 32.3638
lfingers 7.12502
lthumb 17.1457 61.6273
rfemur -21.561 10.4723 19.8672
rtibia 37.53
rfoot -17.0838 -9.00996
rtoes -0.283292
lfemur -34.6467 4.37049 -16.7229
ltibia 48.2558
lfoot -12.0693 2.19954
ltoes -4.92567
5
root 14.7992 18.5975 20.8009 -173.392 -9.61629 -178.821
lowerback 10.8321 2.09811 -2.13851
upperback 5.97662 1.87347 -2.60306
thorax 0.167582 0.637819 -1.69106
lowerneck -1.73182 -7.33284 -6.91213
upperneck 21.2291 -12.1691 4.9349
head 7.51868 -6.44565 1.79014
rclavicle 9.14409e-015 1.66979e-014
rhumerus -11.8618 -12.2166 -61.2435
rradius 52.9379
rwrist 1.51287
rhand -24.5256 25.7346
rfingers 7.12502
rthumb 1.96979 -4.23602
lclavicle 9.14409e-015 1.66979e-014
lhumerus -28.2622 -9.82328 82.3227
lradius 55.7511
lwrist -9.38701
lhand -6.71418 35.3503
lfingers 7.12502
lthumb 19.1457 64.4279
rfemur -21.3324 10.6427 19.8572
rtibia 37.2811
rfoot -17.1612 -9.1667
rtoes -0.714973
lfemur -35.0512 3.9243 -16.4943
ltibia 45.9852
lfoot -11.556 2.99103
ltoes -7.77594
6
root 14.7699 18.6105 20.7227 -173.198 -9.48428 -178.81
lowerback 11.2824 1.63196 -2.11064
upperback 6.23089 1.18819 -2.70975
thorax 0.182136 0.27319 -1.75272
lowerneck -3.0048 -7.04361 -7.80238
upperneck 21.4959 -11.6272 5.30701
head 7.87304 -6.17388 2.03583
rclavicle -1.15295e-014 5.1684e-014
rhumerus -9.42372 -11.4112 -61.4582
rradius 53.1001
rwrist 0.382688
rhand -25.0999 26.0737
rfingers 7.12502
rthumb 1.41509 -3.90138
lclavicle -1.15295e-014 5.1684e-014
lhumerus -27.9594 -8.11349 81.638
lradius 55.8749
lwrist -9.10019
lhand -7.64078 34.5057
lfingers 7.12502
lthumb 18.2545 63.6692
rfemur -21.1751 10.6682 19.8412
rtibia 37.0622
rfoot -17.3106 -9.1524
rtoes -0.0888109
lfemur -35.3894 3.4978 -16.2481
ltibia 43.5767
lfoot -10.4118 3.48461
ltoes -7.0799
7
root 14.7376 18.614 20.6461 -173.074 -9.20616 -178.516
lowerback 11.6599 2.30641 -0.502548
upperback 5.47393 2.2316 -3.87953
thorax -0.673719 0.860795 -4.01822
lowerneck 0.160683 -7.49507 -5.87529
upperneck 20.6927 -12.8491 6.02283
head 7.0589 -6.69987 2.02149
rclavicle 3.69739e-014 3.73715e-014
rhumerus -12.0066 -13.5903 -61.0968
rradius 53.9707
rwrist -0.374708
rhand -26.9109 25.7266
rfingers 7.12502
rthumb -0.333993 -4.25284
lclavicle 3.69739e-014 3.73715e-014
lhumerus -29.1321 -11.7259 80.7418
lradius 56.3617
lwrist -9.40177
lhand -7.02146 34.0536
lfingers 7.12502
lthumb 18.8502 63.1602
rfemur -21.0425 10.7679 20.1017
rtibia 36.9091
rfoot -17.5075 -8.98364
rtoes 0.964815
lfemur -35.6158 3.06095 -15.6268
ltibia 41.0818
lfoot -9.37359 4.24155
ltoes -7.00654
8
root 14.7039 18.6012 20.5681 -172.998 -8.76945 -178.312
lowerback 11.4305 2.10175 -1.44586
upperback 6.22656 1.83914 -3.12542
thorax 0.147071 0.611462 -2.63437
lowerneck -1.36113 -7.28152 -7.04618
upperneck 20.6464 -12.1387 5.57943
head 7.30701 -6.38649 2.05049
rclavicle 2.70347e-014 -4.21423e-014
rhumerus -8.46231 -12.8969 -60.5089
rradius 53.68
rwrist -0.861742
rhand -27.0061 25.3721
rfingers 7.12502
rthumb -0.425978 -4.60722
lclavicle 2.70347e-014 -4.21423e-014
lhumerus -28.0679 -9.48874 81.1443
lradius 56.2455
lwrist -8.35801
lhand -9.1375 31.7019
lfingers 7.12502
lthumb 16.8141 60.9939
rfemur -20.82 11.0588 20.2304
rtibia 36.7834
rfoot -17.6931 -8.82497
rtoes 1.43996
lfemur -35.6336 2.52748 -15.0144
ltibia 38.516
lfoot -8.40404 5.0785
ltoes -4.53474
9
root 14.6705 18.5942 20.4927 -172.884 -8.40895 -178.33
lowerback 11.9004 2.31344 -2.12353
upperback 6.14855 2.03092 -2.88176
thorax -0.217245 0.686643 -2.03684
lowerneck -0.998938 -7.38537 -7.16715
upperneck 20.4417 -12.2144 5.26006
head 7.17091 -6.46088 1.98264
rclavicle 7.15625e-015 1.27222e-014
rhumerus -7.48854 -13.2608 -59.5684
rradius 53.7562
rwrist -1.44772
rhand -26.4805 25.7838
rfingers 7.12502
rthumb 0.0816783 -4.19593
lclavicle 7.15625e-015 1.27222e-014
lhumerus -28.2663 -9.30729 81.4875
lradius 56.4475
lwrist -8.00935
lhand -9.66092 31.0974
lfingers 7.12502
lthumb 16.3102 60.4315
rfemur -20.6194 11.2541 20.1273
rtibia 36.6593
rfoot -17.8205 -8.76658
rtoes 1.4288
lfemur -35.5741 1.97922 -14.635
ltibia 35.9393
lfoot -6.9441 5.44026
ltoes -1.13762
10
root 14.634 18.5973 20.4165 -172.714 -8.26333 -178.317
lowerback 11.748 2.3348 -2.37632
upperback 6.41174 2.01149 -2.85976
thorax 0.12934 0.653251 -1.86239
lowerneck -0.996961 -7.41942 -7.12184
upperneck 20.1987 -12.187 5.15611
head 7.08053 -6.4402 1.95061
rclavicle -1.43125e-014 -3.97569e-014
rhumerus -6.25872 -13.4704 -59.0562
rradius 54.05
rwrist -2.35536
rhand -28.7109 25.1879
rfingers 7.12502
rthumb -2.07254 -4.7818
lclavicle -1.43125e-014 -3.97569e-014
lhumerus -28.0609 -9.01828 81.4304
lradius 56.6014
lwrist -8.04631
lhand -9.99762 31.242
lfingers 7.12502
lthumb 15.9859 60.6024
rfemur -20.488 11.2053 20.0788
rtibia 36.5805
rfoot -18.0033 -8.68026
rtoes 1.44677
lfemur -35.5729 1.29224 -14.1959
ltibia 33.3563
lfoot -6.86442 6.316
ltoes -6.4088
11
root 14.5983 18.5936 20.3369 -172.495 -8.08862 -178.245
lowerback 11.6204 2.1977 -2.65164
upperback 6.67495 1.7831 -2.75536
thorax 0.457134 0.512846 -1.56797
lowerneck -1.20357 -7.28599 -7.49127
upperneck 19.9661 -11.8846 5.12018
head 7.04102 -6.30485 2.01757
rclavicle -1.59028e-015 -7.95139e-016
rhumerus -4.46122 -13.3279 -58.7836
rradius 54.0132
rwrist -3.11248
rhand -31.0661 24.2289
rfingers 7.12502
rthumb -4.34698 -5.7065
lclavicle -1.59028e-015 -7.95139e-016
lhumerus -27.7557 -8.29998 81.3654
lradius 56.8853
lwrist -7.59237
lhand -10.7253 31.8011
lfingers 7.12502
lthumb 15.2851 61.2163
rfemur -20.4204 11.1702 20.0974
rtibia 36.5498
rfoot -18.3114 -8.6355
rtoes 1.09959
lfemur -35.6016 0.512528 -13.5923
ltibia 30.759
lfoot -6.13854 7.1984
ltoes -6.52321
